HIERARCHY
ROOT Hips
{
    OFFSET 0.000000 0.000000 0.000000
    CHANNELS 6 Xposition Yposition Zposition Zrotation Xrotation Yrotation
    JOINT Spine
    {
        OFFSET -0.000000 14.517291 0.000000
        CHANNELS 3 Zrotation Xrotation Yrotation
        JOINT Spine1
        {
            OFFSET -0.000000 37.558300 0.000000
            CHANNELS 3 Zrotation Xrotation Yrotation
            JOINT Neck
            {
                OFFSET -0.000000 37.404057 3.400369
                CHANNELS 3 Zrotation Xrotation Yrotation
                JOINT Head
                {
                    OFFSET -0.000000 24.785618 -3.540803
                    CHANNELS 3 Zrotation Xrotation Yrotation
                    End Site
                    {
                        OFFSET -0.000000 35.408028 0.000000
                    }
                }
            }
            JOINT LeftShoulder
            {
                OFFSET 6.992933 33.973492 -0.192664
                CHANNELS 3 Zrotation Xrotation Yrotation
                JOINT LeftArm
                {
                    OFFSET 21.527611 0.000000 0.000000
                    CHANNELS 3 Zrotation Xrotation Yrotation
                    JOINT LeftForeArm
                    {
                        OFFSET 56.353916 0.000000 0.000000
                        CHANNELS 3 Zrotation Xrotation Yrotation
                        JOINT LeftHand
                        {
                            OFFSET 47.774071 0.000000 0.000000
                            CHANNELS 3 Zrotation Xrotation Yrotation
                            End Site
                            {
                                OFFSET 26.556021 0.000000 0.000000
                            }
                        }
                    }
                }
            }
            JOINT RightShoulder
            {
                OFFSET -7.065357 33.973492 -0.192664
                CHANNELS 3 Zrotation Xrotation Yrotation
                JOINT RightArm
                {
                    OFFSET -21.527611 0.000000 0.000000
                    CHANNELS 3 Zrotation Xrotation Yrotation
                    JOINT RightForeArm
                    {
                        OFFSET -56.353916 0.000000 0.000000
                        CHANNELS 3 Zrotation Xrotation Yrotation
                        JOINT RightHand
                        {
                            OFFSET -47.774071 0.000000 0.000000
                            CHANNELS 3 Zrotation Xrotation Yrotation
                            End Site
                            {
                                OFFSET -26.556021 0.000000 0.000000
                            }
                        }
                    }
                }
            }
        }
    }
    JOINT LeftUpLeg
    {
        OFFSET 17.704014 0.000000 0.000000
        CHANNELS 3 Zrotation Xrotation Yrotation
        JOINT LeftLeg
        {
            OFFSET -0.000000 -81.181816 0.000000
            CHANNELS 3 Zrotation Xrotation Yrotation
            JOINT LeftFoot
            {
                OFFSET -0.000000 -62.821102 0.000000
                CHANNELS 3 Zrotation Xrotation Yrotation
                JOINT LeftToeBase
                {
                    OFFSET -0.000000 -11.507608 26.556021
                    CHANNELS 3 Zrotation Xrotation Yrotation
                    End Site
                    {
                        OFFSET -0.000000 0.000000 7.081605
                    }
                }
            }
        }
    }
    JOINT RightUpLeg
    {
        OFFSET -17.704014 0.000000 0.000000
        CHANNELS 3 Zrotation Xrotation Yrotation
        JOINT RightLeg
        {
            OFFSET -0.000000 -81.181816 0.000000
            CHANNELS 3 Zrotation Xrotation Yrotation
            JOINT RightFoot
            {
                OFFSET -0.000000 -62.821102 0.000000
                CHANNELS 3 Zrotation Xrotation Yrotation
                JOINT RightToeBase
                {
                    OFFSET -0.000000 -11.507608 26.556021
                    CHANNELS 3 Zrotation Xrotation Yrotation
                    End Site
                    {
                        OFFSET -0.000000 0.000000 7.081605
                    }
                }
            }
        }
    }
}
MOTION
Frames:    12
Frame Time:    0.008333
19.935465    152.299561    -32.952438    1.808781    2.023053    -64.978920    2.760923    -0.122125    2.554743    -0.327656    2.084713    0.855880    16.038109    0.986270    16.070616    -11.767058    9.833061    13.842219    11.511430    -0.737547    -17.956507    -10.171306    -17.731052    -38.889439    9.864614    -39.593803    -19.498657    -23.869638    -29.918556    -45.185524    -9.174515    3.252698    -0.395919    34.823738    7.053682    78.617752    7.592240    -2.685423    106.488441    4.365110    -12.048318    19.621864    28.670687    -20.599552    4.182662    -18.290379    31.399443    -6.299311    -7.809566    -9.667311    40.541794    0.000000    0.000000    0.000000    -24.918222    -8.960976    -29.104408    9.814537    35.036301    -10.738275    7.863189    -11.402999    -14.331985    0.000000    0.000000    0.000000    
19.919996    152.273102    -32.980423    1.818961    1.986503    -64.965706    2.772856    -0.127055    2.557834    -0.334848    2.074485    0.856998    16.059366    1.011056    16.056316    -11.795520    9.821329    13.825017    11.504660    -0.730979    -17.970373    -10.187102    -17.737930    -38.916885    9.856237    -39.605953    -19.492231    -23.868225    -29.935574    -45.180473    -9.185789    3.244676    -0.392946    34.873470    7.039688    78.603027    7.599689    -2.687804    106.485214    4.364544    -12.059554    19.633919    28.637051    -20.595915    4.137497    -18.285349    31.384058    -6.301660    -7.830290    -9.687555    40.546246    0.000000    0.000000    0.000000    -24.982449    -8.995683    -29.032118    9.881924    35.150105    -10.763964    7.900701    -11.469612    -14.407298    0.000000    0.000000    0.000000    
19.912617    152.248993    -32.999386    1.832720    1.945709    -64.958771    2.790512    -0.137907    2.559614    -0.362290    2.078061    0.857976    16.102909    1.026766    16.064564    -11.841291    9.810968    13.826155    11.514962    -0.753619    -17.993345    -10.206907    -17.717115    -38.913174    9.861120    -39.612354    -19.502594    -23.839359    -29.958410    -45.151691    -9.160886    3.228409    -0.396078    34.872379    7.028368    78.600624    7.576714    -2.717962    106.483154    4.364180    -12.058169    19.635250    28.593510    -20.595041    4.073698    -18.292597    31.369896    -6.288805    -7.840039    -9.702816    40.565315    0.000000    0.000000    0.000000    -25.050222    -9.039799    -28.924797    9.951900    35.259205    -10.822594    7.950343    -11.520564    -14.471731    0.000000    0.000000    0.000000    
19.907341    152.226440    -33.012081    1.836730    1.907125    -64.954727    2.807148    -0.141368    2.555889    -0.376486    2.088914    0.856967    16.125959    1.027619    16.061621    -11.871488    9.797445    13.816836    11.519145    -0.753918    -17.997320    -10.203669    -17.677076    -38.925495    9.914423    -39.667236    -19.486565    -23.827415    -30.020081    -45.141651    -9.149212    3.211926    -0.398998    34.875267    7.024020    78.611984    7.571903    -2.749606    106.488396    4.341455    -12.086945    19.654179    28.558588    -20.588840    4.007544    -18.305416    31.365089    -6.294463    -7.862728    -9.732441    40.602547    0.000000    0.000000    0.000000    -25.100834    -9.077074    -28.832794    9.982488    35.357559    -10.840011    7.997875    -11.573918    -14.545341    0.000000    0.000000    0.000000    
19.919950    152.217682    -33.019726    1.895612    1.853393    -64.965195    2.782812    -0.182536    2.555694    -0.387419    2.098299    0.856843    16.117397    0.999953    16.065285    -11.846094    9.804850    13.820045    11.529887    -0.776348    -17.979061    -10.228642    -17.663296    -38.944298    9.922014    -39.651417    -19.485405    -23.803928    -30.009670    -45.143738    -9.136422    3.191430    -0.388735    34.874683    7.025306    78.615562    7.562253    -2.790532    106.512108    4.359524    -12.115625    19.647503    28.481806    -20.614357    3.949674    -18.319107    31.337095    -6.245401    -7.875767    -9.713420    40.615509    0.000000    0.000000    0.000000    -25.191057    -9.164887    -28.711126    10.040553    35.441650    -10.889345    8.034410    -11.614174    -14.636471    0.000000    0.000000    0.000000    
19.921286    152.200790    -33.022476    1.894380    1.814425    -64.969574    2.794740    -0.181669    2.553341    -0.389134    2.114393    0.856123    16.106678    1.018117    16.063932    -11.839601    9.760618    13.818480    11.537539    -0.772638    -17.972130    -10.244592    -17.672577    -38.966640    9.946330    -39.645939    -19.472424    -23.829067    -29.983690    -45.179176    -9.139221    3.182080    -0.388396    34.878036    7.024951    78.626869    7.545532    -2.834561    106.533707    4.383161    -12.136658    19.644894    28.443110    -20.597294    3.898220    -18.327595    31.329865    -6.227305    -7.882147    -9.733926    40.618710    0.000000    0.000000    0.000000    -25.231609    -9.192040    -28.556946    10.107406    35.500515    -10.957043    8.056215    -11.657559    -14.735445    0.000000    0.000000    0.000000    
19.932306    152.186279    -33.025517    1.903890    1.780943    -64.977333    2.799180    -0.191421    2.550015    -0.371770    2.135352    0.854712    16.074789    1.035478    16.062582    -11.816321    9.700369    13.819081    11.528421    -0.770441    -17.961304    -10.259084    -17.713058    -38.979050    9.918946    -39.608322    -19.497038    -23.843496    -29.933563    -45.199890    -9.159895    3.157081    -0.372994    34.881580    7.038009    78.630150    7.512474    -2.892019    106.551956    4.397967    -12.150243    19.632620    28.410475    -20.599195    3.857900    -18.351347    31.329025    -6.183020    -7.876641    -9.729973    40.624474    0.000000    0.000000    0.000000    -25.266224    -9.222438    -28.414415    10.163938    35.534443    -10.977029    8.056743    -11.709200    -14.852651    0.000000    0.000000    0.000000    
19.944477    152.176071    -33.024681    1.906480    1.754369    -64.984001    2.817984    -0.201882    2.549414    -0.360686    2.158395    0.854280    16.064922    1.040122    16.070702    -11.830713    9.676125    13.826324    11.512457    -0.760832    -17.955711    -10.235609    -17.709242    -38.982956    9.919637    -39.628799    -19.513233    -23.865997    -29.945839    -45.203831    -9.161687    3.152256    -0.359625    34.855534    7.043813    78.643997    7.477794    -2.960875    106.571220    4.409833    -12.173275    19.619217    28.385866    -20.593504    3.832604    -18.363510    31.330559    -6.164811    -7.879395    -9.735363    40.615589    0.000000    0.000000    0.000000    -25.283178    -9.245627    -28.308956    10.184587    35.559467    -10.986002    8.082413    -11.757474    -14.950563    0.000000    0.000000    0.000000    
19.993437    152.188568    -32.961548    1.873240    1.732139    -64.989708    2.958518    -0.151493    2.542618    -0.446146    2.150590    0.853940    16.016958    1.047629    16.057196    -11.802735    9.643378    13.818210    11.495754    -0.761251    -17.947002    -10.240952    -17.706367    -38.984451    9.909700    -39.619808    -19.551094    -23.868902    -29.936752    -45.187801    -9.171990    3.156263    -0.358223    34.855736    7.048348    78.668930    7.465317    -2.987341    106.579453    4.413833    -12.184264    19.600452    28.331461    -20.567968    3.762729    -18.362110    31.334288    -6.127512    -7.849101    -9.749573    40.612137    0.000000    0.000000    0.000000    -25.302364    -9.231171    -28.214949    10.188210    35.541695    -11.015368    8.121868    -11.669310    -14.990476    0.000000    0.000000    0.000000    
19.982079    152.167267    -33.005478    1.913122    1.715022    -64.997849    2.862135    -0.217276    2.536964    -0.325398    2.185969    0.849384    15.998715    1.026562    16.062284    -11.791030    9.641747    13.823594    11.495810    -0.775511    -17.932123    -10.254882    -17.701023    -38.989185    9.904517    -39.587620    -19.562225    -23.893806    -29.886992    -45.206142    -9.178348    3.155800    -0.346610    34.842583    7.056524    78.688667    7.438934    -3.025535    106.582390    4.379869    -12.193361    19.592932    28.339691    -20.589579    3.813496    -18.374384    31.336189    -6.145737    -7.853026    -9.728104    40.598175    0.000000    0.000000    0.000000    -25.300173    -9.283648    -28.154518    10.168900    35.575489    -11.049423    8.111904    -11.779608    -14.984979    0.000000    0.000000    0.000000    
20.006115    152.165833    -32.985859    1.918833    1.701470    -65.004494    2.891200    -0.231496    2.528008    -0.312481    2.199927    0.846104    16.001638    1.030123    16.062777    -11.821547    9.624171    13.820662    11.492822    -0.785719    -17.923956    -10.253323    -17.694002    -38.987015    9.897940    -39.545841    -19.564032    -23.888403    -29.848494    -45.180485    -9.183937    3.184243    -0.343606    34.854050    7.038963    78.718628    7.443869    -3.009896    106.573509    4.427823    -12.174859    19.594210    28.313398    -20.589479    3.831766    -18.364601    31.338997    -6.144830    -7.840102    -9.732349    40.599220    0.000000    0.000000    0.000000    -25.303898    -9.307529    -28.134251    10.113501    35.586201    -11.033785    8.141244    -11.779202    -14.993307    0.000000    0.000000    0.000000    
20.039316    152.165649    -32.961700    1.933040    1.694150    -65.011848    2.932257    -0.257160    2.517059    -0.320247    2.221279    0.842374    15.999026    1.009408    16.073107    -11.813841    9.623270    13.829191    11.504003    -0.799885    -17.915361    -10.235817    -17.656816    -38.978146    9.914272    -39.536251    -19.552174    -23.879410    -29.842451    -45.167080    -9.180461    3.176908    -0.331545    34.879318    7.035531    78.720695    7.460691    -2.971516    106.567551    4.418783    -12.160341    19.591074    28.286581    -20.601522    3.873843    -18.319464    31.360205    -6.208567    -7.852317    -9.753647    40.585300    0.000000    0.000000    0.000000    -25.310221    -9.337162    -28.109194    10.075779    35.582874    -11.077202    8.169666    -11.764112    -14.953121    0.000000    0.000000    0.000000    
